  0
SECTION
  2
HEADER
  9
$ACADVER
  1
AC1009
  9
$FILLMODE
 70
0
  9
$EXTMIN
 10
-79.6510
 20
-31.6510
 30
0.0000
  9
$EXTMAX
 10
79.6510
 20
57.1348
 30
0.0000
  0
ENDSEC
  0
SECTION
  2
TABLES
  0
TABLE
  2
LTYPE
 70
1
  0
LTYPE
  2
CONTINUOUS
 70
64
  3
Solid line
 72
65
 73
0
 40
0
  0
ENDTAB
  0
TABLE
  2
LAYER
 70
255
  0
LAYER
  2
1
 70
64
 62
12
  6
CONTINUOUS
  0
LAYER
  2
16
 70
64
 62
132
  6
CONTINUOUS
  0
LAYER
  2
17
 70
64
 62
110
  6
CONTINUOUS
  0
LAYER
  2
18
 70
64
 62
110
  6
CONTINUOUS
  0
LAYER
  2
19
 70
64
 62
53
  6
CONTINUOUS
  0
LAYER
  2
20
 70
64
 62
31
  6
CONTINUOUS
  0
LAYER
  2
21
 70
64
 62
253
  6
CONTINUOUS
  0
LAYER
  2
22
 70
64
 62
253
  6
CONTINUOUS
  0
LAYER
  2
23
 70
64
 62
53
  6
CONTINUOUS
  0
LAYER
  2
24
 70
64
 62
53
  6
CONTINUOUS
  0
LAYER
  2
25
 70
64
 62
253
  6
CONTINUOUS
  0
LAYER
  2
26
 70
64
 62
253
  6
CONTINUOUS
  0
LAYER
  2
27
 70
64
 62
253
  6
CONTINUOUS
  0
LAYER
  2
28
 70
64
 62
253
  6
CONTINUOUS
  0
LAYER
  2
39
 70
64
 62
12
  6
CONTINUOUS
  0
LAYER
  2
40
 70
64
 62
132
  6
CONTINUOUS
  0
LAYER
  2
41
 70
64
 62
12
  6
CONTINUOUS
  0
LAYER
  2
42
 70
64
 62
132
  6
CONTINUOUS
  0
LAYER
  2
43
 70
64
 62
110
  6
CONTINUOUS
  0
LAYER
  2
45
 70
64
 62
253
  6
CONTINUOUS
  0
LAYER
  2
47
 70
64
 62
253
  6
CONTINUOUS
  0
LAYER
  2
48
 70
64
 62
253
  6
CONTINUOUS
  0
LAYER
  2
49
 70
64
 62
253
  6
CONTINUOUS
  0
LAYER
  2
51
 70
64
 62
253
  6
CONTINUOUS
  0
LAYER
  2
52
 70
64
 62
253
  6
CONTINUOUS
  0
LAYER
  2
250
 70
64
 62
253
  6
CONTINUOUS
  0
LAYER
  2
251
 70
64
 62
253
  6
CONTINUOUS
  0
ENDTAB
  0
ENDSEC
  0
SECTION
  2
BLOCKS
  0
BLOCK
  8
0
  2
RECT
 70
64
 10
0.0000
 20
0.0000
 30
0.0000
  3
RECT
  0
SOLID
  8
0
 10
-0.5000
 20
-0.5000
 30
0.0000
 11
0.5000
 21
-0.5000
 31
0.0000
 12
-0.5000
 22
0.5000
 32
0.0000
 13
0.5000
 23
0.5000
 33
0.0000
  0
ENDBLK
  8
0
  0
BLOCK
  8
0
  2
PIE
 70
64
 10
0.0000
 20
0.0000
 30
0.0000
  3
PIE
  0
CIRCLE
  8
0
 10
0.0000
 20
0.0000
 30
0.0000
 40
0.5000
  0
ENDBLK
  8
0
  0
BLOCK
  8
0
  2
OCTAGONP
 70
64
 10
0.0000
 20
0.0000
 30
0.0000
  3
OCTAGONP
  0
POLYLINE
  8
0
 66
1
 10
0.0000
 20
0.0000
 30
0.0000
 40
0.0000
 41
0.0000
 70
1
  0
VERTEX
  8
0
 10
-0.5000
 20
-0.2071
 30
0.0000
  0
VERTEX
  8
0
 10
-0.5000
 20
0.2071
 30
0.0000
  0
VERTEX
  8
0
 10
-0.2071
 20
0.5000
 30
0.0000
  0
VERTEX
  8
0
 10
0.2071
 20
0.5000
 30
0.0000
  0
VERTEX
  8
0
 10
0.5000
 20
0.2071
 30
0.0000
  0
VERTEX
  8
0
 10
0.5000
 20
-0.2071
 30
0.0000
  0
VERTEX
  8
0
 10
0.2071
 20
-0.5000
 30
0.0000
  0
VERTEX
  8
0
 10
-0.2071
 20
-0.5000
 30
0.0000
  0
SEQEND
  8
0
  0
ENDBLK
  8
0
  0
BLOCK
  8
0
  2
SQUAREP
 70
64
 10
0.0000
 20
0.0000
 30
0.0000
  3
SQUAREP
  0
SOLID
  8
0
 10
-0.5000
 20
-0.5000
 30
0.0000
 11
0.5000
 21
-0.5000
 31
0.0000
 12
-0.5000
 22
0.5000
 32
0.0000
 13
0.5000
 23
0.5000
 33
0.0000
  0
ENDBLK
  8
0
  0
BLOCK
  8
0
  2
ROUNDP
 70
64
 10
0.0000
 20
0.0000
 30
0.0000
  3
ROUNDP
  0
CIRCLE
  8
0
 10
0.0000
 20
0.0000
 30
0.0000
 40
0.5000
  0
ENDBLK
  8
0
  0
BLOCK
  8
0
  2
ANNULUSP
 70
64
 10
0.0000
 20
0.0000
 30
0.0000
  3
ANNULUSP
  0
CIRCLE
  8
0
 10
0.0000
 20
0.0000
 30
0.0000
 40
0.5000
  0
ENDBLK
  8
0
  0
BLOCK
  8
0
  2
THERMALP
 70
64
 10
0.0000
 20
0.0000
 30
0.0000
  3
THERMALP
  0
LINE
  8
0
 10
-0.2379
 20
0.4500
 30
0.0000
 11
0.2379
 21
0.4500
 31
0.0000
  0
LINE
  8
0
 10
0.4500
 20
0.2379
 30
0.0000
 11
0.4500
 21
-0.2379
 31
0.0000
  0
LINE
  8
0
 10
0.2379
 20
-0.4500
 30
0.0000
 11
-0.2379
 21
-0.4500
 31
0.0000
  0
LINE
  8
0
 10
-0.4500
 20
-0.2379
 30
0.0000
 11
-0.4500
 21
0.2379
 31
0.0000
  0
ENDBLK
  8
0
  0
BLOCK
  8
0
  2
OCTAGONV
 70
64
 10
0.0000
 20
0.0000
 30
0.0000
  3
OCTAGONV
  0
POLYLINE
  8
0
 66
1
 10
0.0000
 20
0.0000
 30
0.0000
 40
0.0000
 41
0.0000
 70
1
  0
VERTEX
  8
0
 10
-0.5000
 20
-0.2071
 30
0.0000
  0
VERTEX
  8
0
 10
-0.5000
 20
0.2071
 30
0.0000
  0
VERTEX
  8
0
 10
-0.2071
 20
0.5000
 30
0.0000
  0
VERTEX
  8
0
 10
0.2071
 20
0.5000
 30
0.0000
  0
VERTEX
  8
0
 10
0.5000
 20
0.2071
 30
0.0000
  0
VERTEX
  8
0
 10
0.5000
 20
-0.2071
 30
0.0000
  0
VERTEX
  8
0
 10
0.2071
 20
-0.5000
 30
0.0000
  0
VERTEX
  8
0
 10
-0.2071
 20
-0.5000
 30
0.0000
  0
SEQEND
  8
0
  0
ENDBLK
  8
0
  0
BLOCK
  8
0
  2
SQUAREV
 70
64
 10
0.0000
 20
0.0000
 30
0.0000
  3
SQUAREV
  0
SOLID
  8
0
 10
-0.5000
 20
-0.5000
 30
0.0000
 11
0.5000
 21
-0.5000
 31
0.0000
 12
-0.5000
 22
0.5000
 32
0.0000
 13
0.5000
 23
0.5000
 33
0.0000
  0
ENDBLK
  8
0
  0
BLOCK
  8
0
  2
ROUNDV
 70
64
 10
0.0000
 20
0.0000
 30
0.0000
  3
ROUNDV
  0
CIRCLE
  8
0
 10
0.0000
 20
0.0000
 30
0.0000
 40
0.5000
  0
ENDBLK
  8
0
  0
BLOCK
  8
0
  2
ANNULUSV
 70
64
 10
0.0000
 20
0.0000
 30
0.0000
  3
ANNULUSV
  0
CIRCLE
  8
0
 10
0.0000
 20
0.0000
 30
0.0000
 40
0.5000
  0
ENDBLK
  8
0
  0
BLOCK
  8
0
  2
THERMALV
 70
64
 10
0.0000
 20
0.0000
 30
0.0000
  3
THERMALV
  0
LINE
  8
0
 10
-0.2379
 20
0.4500
 30
0.0000
 11
0.2379
 21
0.4500
 31
0.0000
  0
LINE
  8
0
 10
0.4500
 20
0.2379
 30
0.0000
 11
0.4500
 21
-0.2379
 31
0.0000
  0
LINE
  8
0
 10
0.2379
 20
-0.4500
 30
0.0000
 11
-0.2379
 21
-0.4500
 31
0.0000
  0
LINE
  8
0
 10
-0.4500
 20
-0.2379
 30
0.0000
 11
-0.4500
 21
0.2379
 31
0.0000
  0
ENDBLK
  8
0
  0
ENDSEC
  0
SECTION
  2
ENTITIES
  0
LINE
  8
20
 10
-60.0000
 20
-20.0000
 30
0.0000
 11
-73.0000
 21
-20.0000
 31
0.0000
  0
ARC
  8
20
 10
-73.0000
 20
-15.0000
 30
0.0000
 40
5.0000
 50
180.0000
 51
270.0000
  0
LINE
  8
20
 10
-78.0000
 20
-15.0000
 30
0.0000
 11
-78.0000
 21
15.0000
 31
0.0000
  0
ARC
  8
20
 10
-73.0000
 20
15.0000
 30
0.0000
 40
5.0000
 50
90.0000
 51
180.0000
  0
LINE
  8
20
 10
-73.0000
 20
20.0000
 30
0.0000
 11
-60.0000
 21
20.0000
 31
0.0000
  0
LINE
  8
20
 10
60.0000
 20
20.0000
 30
0.0000
 11
73.0000
 21
20.0000
 31
0.0000
  0
ARC
  8
20
 10
73.0000
 20
15.0000
 30
0.0000
 40
5.0000
 50
0.0000
 51
90.0000
  0
LINE
  8
20
 10
78.0000
 20
15.0000
 30
0.0000
 11
78.0000
 21
-15.0000
 31
0.0000
  0
ARC
  8
20
 10
73.0000
 20
-15.0000
 30
0.0000
 40
5.0000
 50
270.0000
 51
0.0000
  0
LINE
  8
20
 10
73.0000
 20
-20.0000
 30
0.0000
 11
60.0000
 21
-20.0000
 31
0.0000
  0
LINE
  8
21
 10
-78.0000
 20
-30.0000
 30
0.0000
 11
-78.0000
 21
30.0000
 31
0.0000
  0
LINE
  8
21
 10
-60.0000
 20
-30.0000
 30
0.0000
 11
-60.0000
 21
30.0000
 31
0.0000
  0
LINE
  8
21
 10
78.0000
 20
-30.0000
 30
0.0000
 11
78.0000
 21
30.0000
 31
0.0000
  0
LINE
  8
21
 10
60.0000
 20
-30.0000
 30
0.0000
 11
60.0000
 21
30.0000
 31
0.0000
  0
ARC
  8
20
 10
0.0000
 20
-435.7452
 30
0.0000
 40
459.6779
 50
82.5000
 51
97.5000
  0
ARC
  8
20
 10
0.0000
 20
435.7452
 30
0.0000
 40
459.6779
 50
262.5000
 51
277.5000
  0
LINE
  8
47
 10
-78.0000
 20
45.0000
 30
0.0000
 11
-78.0000
 21
55.9500
 31
0.0000
  0
LINE
  8
47
 10
78.0000
 20
45.0000
 30
0.0000
 11
78.0000
 21
55.9500
 31
0.0000
  0
LINE
  8
47
 10
-77.9350
 20
54.0000
 30
0.0000
 11
77.9350
 21
54.0000
 31
0.0000
  0
LINE
  8
47
 10
-77.9350
 20
54.0000
 30
0.0000
 11
-75.4000
 21
54.3192
 31
0.0000
  0
LINE
  8
47
 10
-75.4000
 20
54.3192
 30
0.0000
 11
-75.4000
 21
53.6808
 31
0.0000
  0
LINE
  8
47
 10
-75.4000
 20
53.6808
 30
0.0000
 11
-77.9350
 21
54.0000
 31
0.0000
  0
LINE
  8
47
 10
-77.9350
 20
54.0000
 30
0.0000
 11
-75.4000
 21
54.1300
 31
0.0000
  0
LINE
  8
47
 10
-75.4000
 20
53.8700
 30
0.0000
 11
-77.9350
 21
54.0000
 31
0.0000
  0
LINE
  8
47
 10
-77.9350
 20
54.0000
 30
0.0000
 11
-75.4000
 21
54.2600
 31
0.0000
  0
LINE
  8
47
 10
-75.4000
 20
53.7400
 30
0.0000
 11
-77.9350
 21
54.0000
 31
0.0000
  0
LINE
  8
47
 10
77.9350
 20
54.0000
 30
0.0000
 11
75.4000
 21
54.3192
 31
0.0000
  0
LINE
  8
47
 10
75.4000
 20
54.3192
 30
0.0000
 11
75.4000
 21
53.6808
 31
0.0000
  0
LINE
  8
47
 10
75.4000
 20
53.6808
 30
0.0000
 11
77.9350
 21
54.0000
 31
0.0000
  0
LINE
  8
47
 10
77.9350
 20
54.0000
 30
0.0000
 11
75.4000
 21
54.1300
 31
0.0000
  0
LINE
  8
47
 10
75.4000
 20
53.8700
 30
0.0000
 11
77.9350
 21
54.0000
 31
0.0000
  0
LINE
  8
47
 10
77.9350
 20
54.0000
 30
0.0000
 11
75.4000
 21
54.2600
 31
0.0000
  0
LINE
  8
47
 10
75.4000
 20
53.7400
 30
0.0000
 11
77.9350
 21
54.0000
 31
0.0000
  0
LINE
  8
47
 10
-3.8244
 20
55.9151
 30
0.0000
 11
-3.3729
 21
56.2763
 31
0.0000
  0
LINE
  8
47
 10
-3.3729
 20
56.2763
 30
0.0000
 11
-3.3729
 21
54.6507
 31
0.0000
  0
LINE
  8
47
 10
-3.8244
 20
54.6507
 30
0.0000
 11
-2.9213
 21
54.6507
 31
0.0000
  0
LINE
  8
47
 10
-2.2613
 20
54.6507
 30
0.0000
 11
-1.7194
 21
54.6507
 31
0.0000
  0
ARC
  8
47
 10
-1.7194
 20
55.0119
 30
0.0000
 40
0.3612
 50
270.0000
 51
0.0000
  0
LINE
  8
47
 10
-1.3582
 20
55.0119
 30
0.0000
 11
-1.3582
 21
55.1926
 31
0.0000
  0
ARC
  8
47
 10
-1.7194
 20
55.1926
 30
0.0000
 40
0.3612
 50
0.0000
 51
90.0000
  0
LINE
  8
47
 10
-1.7194
 20
55.5538
 30
0.0000
 11
-2.2613
 21
55.5538
 31
0.0000
  0
LINE
  8
47
 10
-2.2613
 20
55.5538
 30
0.0000
 11
-2.2613
 21
56.2763
 31
0.0000
  0
LINE
  8
47
 10
-2.2613
 20
56.2763
 30
0.0000
 11
-1.3582
 21
56.2763
 31
0.0000
  0
LINE
  8
47
 10
-0.6982
 20
55.5538
 30
0.0000
 11
-0.1563
 21
55.5538
 31
0.0000
  0
ARC
  8
47
 10
-0.1563
 20
55.1926
 30
0.0000
 40
0.3612
 50
0.0000
 51
90.0000
  0
LINE
  8
47
 10
0.2049
 20
55.1926
 30
0.0000
 11
0.2049
 21
55.1023
 31
0.0000
  0
ARC
  8
47
 10
-0.2466
 20
55.1023
 30
0.0000
 40
0.4516
 50
180.0000
 51
0.0000
  0
LINE
  8
47
 10
-0.6982
 20
55.1023
 30
0.0000
 11
-0.6982
 21
55.5538
 31
0.0000
  0
ARC
  8
47
 10
0.0243
 20
55.5538
 30
0.0000
 40
0.7225
 50
90.0000
 51
180.0000
  0
LINE
  8
47
 10
0.8024
 20
54.6507
 30
0.0000
 11
0.8024
 21
54.7410
 31
0.0000
  0
LINE
  8
47
 10
0.8024
 20
54.7410
 30
0.0000
 11
0.8927
 21
54.7410
 31
0.0000
  0
LINE
  8
47
 10
0.8927
 20
54.7410
 30
0.0000
 11
0.8927
 21
54.6507
 31
0.0000
  0
LINE
  8
47
 10
0.8927
 20
54.6507
 30
0.0000
 11
0.8024
 21
54.6507
 31
0.0000
  0
ARC
  8
47
 10
2.8298
 20
55.4635
 30
0.0000
 40
1.3396
 50
154.0109
 51
180.0001
  0
ARC
  8
47
 10
1.9418
 20
55.9422
 30
0.0000
 40
0.3342
 50
90.0001
 51
161.0756
  0
ARC
  8
47
 10
1.9418
 20
55.9421
 30
0.0000
 40
0.3342
 50
18.9248
 51
90.0000
  0
ARC
  8
47
 10
1.0537
 20
55.4635
 30
0.0000
 40
1.3396
 50
360.0000
 51
25.9891
  0
ARC
  8
47
 10
2.8298
 20
55.4635
 30
0.0000
 40
1.3396
 50
180.0000
 51
205.9889
  0
ARC
  8
47
 10
1.9418
 20
54.9849
 30
0.0000
 40
0.3342
 50
198.9250
 51
270.0000
  0
ARC
  8
47
 10
1.0537
 20
55.4635
 30
0.0000
 40
1.3396
 50
334.0111
 51
360.0000
  0
ARC
  8
47
 10
1.9418
 20
54.9849
 30
0.0000
 40
0.3342
 50
269.9999
 51
341.0745
  0
LINE
  8
47
 10
1.5805
 20
55.0119
 30
0.0000
 11
2.3030
 21
55.9151
 31
0.0000
  0
ARC
  8
47
 10
4.3929
 20
55.4635
 30
0.0000
 40
1.3396
 50
154.0109
 51
180.0001
  0
ARC
  8
47
 10
3.5049
 20
55.9422
 30
0.0000
 40
0.3342
 50
90.0001
 51
161.0756
  0
ARC
  8
47
 10
3.5049
 20
55.9421
 30
0.0000
 40
0.3342
 50
18.9248
 51
90.0000
  0
ARC
  8
47
 10
2.6168
 20
55.4635
 30
0.0000
 40
1.3396
 50
360.0000
 51
25.9891
  0
ARC
  8
47
 10
4.3930
 20
55.4635
 30
0.0000
 40
1.3396
 50
180.0000
 51
205.9889
  0
ARC
  8
47
 10
3.5049
 20
54.9849
 30
0.0000
 40
0.3342
 50
198.9250
 51
270.0000
  0
ARC
  8
47
 10
2.6168
 20
55.4635
 30
0.0000
 40
1.3396
 50
334.0111
 51
360.0000
  0
ARC
  8
47
 10
3.5049
 20
54.9849
 30
0.0000
 40
0.3342
 50
269.9999
 51
341.0745
  0
LINE
  8
47
 10
3.1436
 20
55.0119
 30
0.0000
 11
3.8661
 21
55.9151
 31
0.0000
  0
CIRCLE
  8
20
 10
-69.0000
 20
0.0000
 30
0.0000
 40
2.6500
  0
CIRCLE
  8
20
 10
69.0000
 20
0.0000
 30
0.0000
 40
2.6500
  0
CIRCLE
  8
20
 10
15.0000
 20
0.0000
 30
0.0000
 40
10.0000
  0
CIRCLE
  8
20
 10
-15.0000
 20
0.0000
 30
0.0000
 40
10.0000
  0
CIRCLE
  8
20
 10
-45.0000
 20
0.0000
 30
0.0000
 40
10.0000
  0
CIRCLE
  8
20
 10
45.0000
 20
0.0000
 30
0.0000
 40
10.0000
  0
POINT
  8
23
 10
0.0000
 20
20.0000
 30
0.0000
  0
LINE
  8
39
 10
10.8500
 20
12.3000
 30
0.0000
 11
-10.8500
 21
12.3000
 31
0.0000
  0
LINE
  8
39
 10
-10.8500
 20
12.3000
 30
0.0000
 11
-10.8500
 21
24.0000
 31
0.0000
  0
LINE
  8
39
 10
-10.8500
 20
24.0000
 30
0.0000
 11
10.8500
 21
24.0000
 31
0.0000
  0
LINE
  8
39
 10
10.8500
 20
24.0000
 30
0.0000
 11
10.8500
 21
12.3000
 31
0.0000
  0
LINE
  8
39
 10
-10.8500
 20
12.3000
 30
0.0000
 11
10.8500
 21
12.3000
 31
0.0000
  0
LINE
  8
39
 10
-10.8500
 20
12.4000
 30
0.0000
 11
10.8500
 21
12.4000
 31
0.0000
  0
LINE
  8
39
 10
-10.8500
 20
12.5000
 30
0.0000
 11
10.8500
 21
12.5000
 31
0.0000
  0
LINE
  8
39
 10
-10.8500
 20
12.6000
 30
0.0000
 11
10.8500
 21
12.6000
 31
0.0000
  0
LINE
  8
39
 10
-10.8500
 20
12.7000
 30
0.0000
 11
10.8500
 21
12.7000
 31
0.0000
  0
LINE
  8
39
 10
-10.8500
 20
12.8000
 30
0.0000
 11
10.8500
 21
12.8000
 31
0.0000
  0
LINE
  8
39
 10
-10.8500
 20
12.9000
 30
0.0000
 11
10.8500
 21
12.9000
 31
0.0000
  0
LINE
  8
39
 10
-10.8500
 20
13.0000
 30
0.0000
 11
10.8500
 21
13.0000
 31
0.0000
  0
LINE
  8
39
 10
-10.8500
 20
13.1000
 30
0.0000
 11
10.8500
 21
13.1000
 31
0.0000
  0
LINE
  8
39
 10
-10.8500
 20
13.2000
 30
0.0000
 11
10.8500
 21
13.2000
 31
0.0000
  0
LINE
  8
39
 10
-10.8500
 20
13.3000
 30
0.0000
 11
10.8500
 21
13.3000
 31
0.0000
  0
LINE
  8
39
 10
-10.8500
 20
13.4000
 30
0.0000
 11
10.8500
 21
13.4000
 31
0.0000
  0
LINE
  8
39
 10
-10.8500
 20
13.5000
 30
0.0000
 11
10.8500
 21
13.5000
 31
0.0000
  0
LINE
  8
39
 10
-10.8500
 20
13.6000
 30
0.0000
 11
10.8500
 21
13.6000
 31
0.0000
  0
LINE
  8
39
 10
-10.8500
 20
13.7000
 30
0.0000
 11
10.8500
 21
13.7000
 31
0.0000
  0
LINE
  8
39
 10
-10.8500
 20
13.8000
 30
0.0000
 11
10.8500
 21
13.8000
 31
0.0000
  0
LINE
  8
39
 10
-10.8500
 20
13.9000
 30
0.0000
 11
10.8500
 21
13.9000
 31
0.0000
  0
LINE
  8
39
 10
-10.8500
 20
14.0000
 30
0.0000
 11
10.8500
 21
14.0000
 31
0.0000
  0
LINE
  8
39
 10
-10.8500
 20
14.1000
 30
0.0000
 11
10.8500
 21
14.1000
 31
0.0000
  0
LINE
  8
39
 10
-10.8500
 20
14.2000
 30
0.0000
 11
10.8500
 21
14.2000
 31
0.0000
  0
LINE
  8
39
 10
-10.8500
 20
14.3000
 30
0.0000
 11
10.8500
 21
14.3000
 31
0.0000
  0
LINE
  8
39
 10
-10.8500
 20
14.4000
 30
0.0000
 11
10.8500
 21
14.4000
 31
0.0000
  0
LINE
  8
39
 10
-10.8500
 20
14.5000
 30
0.0000
 11
10.8500
 21
14.5000
 31
0.0000
  0
LINE
  8
39
 10
-10.8500
 20
14.6000
 30
0.0000
 11
10.8500
 21
14.6000
 31
0.0000
  0
LINE
  8
39
 10
-10.8500
 20
14.7000
 30
0.0000
 11
10.8500
 21
14.7000
 31
0.0000
  0
LINE
  8
39
 10
-10.8500
 20
14.8000
 30
0.0000
 11
10.8500
 21
14.8000
 31
0.0000
  0
LINE
  8
39
 10
-10.8500
 20
14.9000
 30
0.0000
 11
10.8500
 21
14.9000
 31
0.0000
  0
LINE
  8
39
 10
-10.8500
 20
15.0000
 30
0.0000
 11
10.8500
 21
15.0000
 31
0.0000
  0
LINE
  8
39
 10
-10.8500
 20
15.1000
 30
0.0000
 11
10.8500
 21
15.1000
 31
0.0000
  0
LINE
  8
39
 10
-10.8500
 20
15.2000
 30
0.0000
 11
10.8500
 21
15.2000
 31
0.0000
  0
LINE
  8
39
 10
-10.8500
 20
15.3000
 30
0.0000
 11
10.8500
 21
15.3000
 31
0.0000
  0
LINE
  8
39
 10
-10.8500
 20
15.4000
 30
0.0000
 11
10.8500
 21
15.4000
 31
0.0000
  0
LINE
  8
39
 10
-10.8500
 20
15.5000
 30
0.0000
 11
10.8500
 21
15.5000
 31
0.0000
  0
LINE
  8
39
 10
-10.8500
 20
15.6000
 30
0.0000
 11
10.8500
 21
15.6000
 31
0.0000
  0
LINE
  8
39
 10
-10.8500
 20
15.7000
 30
0.0000
 11
10.8500
 21
15.7000
 31
0.0000
  0
LINE
  8
39
 10
-10.8500
 20
15.8000
 30
0.0000
 11
10.8500
 21
15.8000
 31
0.0000
  0
LINE
  8
39
 10
-10.8500
 20
15.9000
 30
0.0000
 11
10.8500
 21
15.9000
 31
0.0000
  0
LINE
  8
39
 10
-10.8500
 20
16.0000
 30
0.0000
 11
10.8500
 21
16.0000
 31
0.0000
  0
LINE
  8
39
 10
-10.8500
 20
16.1000
 30
0.0000
 11
10.8500
 21
16.1000
 31
0.0000
  0
LINE
  8
39
 10
-10.8500
 20
16.2000
 30
0.0000
 11
10.8500
 21
16.2000
 31
0.0000
  0
LINE
  8
39
 10
-10.8500
 20
16.3000
 30
0.0000
 11
10.8500
 21
16.3000
 31
0.0000
  0
LINE
  8
39
 10
-10.8500
 20
16.4000
 30
0.0000
 11
10.8500
 21
16.4000
 31
0.0000
  0
LINE
  8
39
 10
-10.8500
 20
16.5000
 30
0.0000
 11
10.8500
 21
16.5000
 31
0.0000
  0
LINE
  8
39
 10
-10.8500
 20
16.6000
 30
0.0000
 11
10.8500
 21
16.6000
 31
0.0000
  0
LINE
  8
39
 10
-10.8500
 20
16.7000
 30
0.0000
 11
10.8500
 21
16.7000
 31
0.0000
  0
LINE
  8
39
 10
-10.8500
 20
16.8000
 30
0.0000
 11
10.8500
 21
16.8000
 31
0.0000
  0
LINE
  8
39
 10
-10.8500
 20
16.9000
 30
0.0000
 11
10.8500
 21
16.9000
 31
0.0000
  0
LINE
  8
39
 10
-10.8500
 20
17.0000
 30
0.0000
 11
10.8500
 21
17.0000
 31
0.0000
  0
LINE
  8
39
 10
-10.8500
 20
17.1000
 30
0.0000
 11
10.8500
 21
17.1000
 31
0.0000
  0
LINE
  8
39
 10
-10.8500
 20
17.2000
 30
0.0000
 11
10.8500
 21
17.2000
 31
0.0000
  0
LINE
  8
39
 10
-10.8500
 20
17.3000
 30
0.0000
 11
10.8500
 21
17.3000
 31
0.0000
  0
LINE
  8
39
 10
-10.8500
 20
17.4000
 30
0.0000
 11
10.8500
 21
17.4000
 31
0.0000
  0
LINE
  8
39
 10
-10.8500
 20
17.5000
 30
0.0000
 11
10.8500
 21
17.5000
 31
0.0000
  0
LINE
  8
39
 10
-10.8500
 20
17.6000
 30
0.0000
 11
10.8500
 21
17.6000
 31
0.0000
  0
LINE
  8
39
 10
-10.8500
 20
17.7000
 30
0.0000
 11
10.8500
 21
17.7000
 31
0.0000
  0
LINE
  8
39
 10
-10.8500
 20
17.8000
 30
0.0000
 11
10.8500
 21
17.8000
 31
0.0000
  0
LINE
  8
39
 10
-10.8500
 20
17.9000
 30
0.0000
 11
10.8500
 21
17.9000
 31
0.0000
  0
LINE
  8
39
 10
-10.8500
 20
18.0000
 30
0.0000
 11
10.8500
 21
18.0000
 31
0.0000
  0
LINE
  8
39
 10
-10.8500
 20
18.1000
 30
0.0000
 11
10.8500
 21
18.1000
 31
0.0000
  0
LINE
  8
39
 10
-10.8500
 20
18.2000
 30
0.0000
 11
10.8500
 21
18.2000
 31
0.0000
  0
LINE
  8
39
 10
-10.8500
 20
18.3000
 30
0.0000
 11
10.8500
 21
18.3000
 31
0.0000
  0
LINE
  8
39
 10
-10.8500
 20
18.4000
 30
0.0000
 11
10.8500
 21
18.4000
 31
0.0000
  0
LINE
  8
39
 10
-10.8500
 20
18.5000
 30
0.0000
 11
10.8500
 21
18.5000
 31
0.0000
  0
LINE
  8
39
 10
-10.8500
 20
18.6000
 30
0.0000
 11
10.8500
 21
18.6000
 31
0.0000
  0
LINE
  8
39
 10
-10.8500
 20
18.7000
 30
0.0000
 11
10.8500
 21
18.7000
 31
0.0000
  0
LINE
  8
39
 10
-10.8500
 20
18.8000
 30
0.0000
 11
10.8500
 21
18.8000
 31
0.0000
  0
LINE
  8
39
 10
-10.8500
 20
18.9000
 30
0.0000
 11
10.8500
 21
18.9000
 31
0.0000
  0
LINE
  8
39
 10
-10.8500
 20
19.0000
 30
0.0000
 11
10.8500
 21
19.0000
 31
0.0000
  0
LINE
  8
39
 10
-10.8500
 20
19.1000
 30
0.0000
 11
10.8500
 21
19.1000
 31
0.0000
  0
LINE
  8
39
 10
-10.8500
 20
19.2000
 30
0.0000
 11
10.8500
 21
19.2000
 31
0.0000
  0
LINE
  8
39
 10
-10.8500
 20
19.3000
 30
0.0000
 11
10.8500
 21
19.3000
 31
0.0000
  0
LINE
  8
39
 10
-10.8500
 20
19.4000
 30
0.0000
 11
10.8500
 21
19.4000
 31
0.0000
  0
LINE
  8
39
 10
-10.8500
 20
19.5000
 30
0.0000
 11
10.8500
 21
19.5000
 31
0.0000
  0
LINE
  8
39
 10
-10.8500
 20
19.6000
 30
0.0000
 11
10.8500
 21
19.6000
 31
0.0000
  0
LINE
  8
39
 10
-10.8500
 20
19.7000
 30
0.0000
 11
10.8500
 21
19.7000
 31
0.0000
  0
LINE
  8
39
 10
-10.8500
 20
19.8000
 30
0.0000
 11
10.8500
 21
19.8000
 31
0.0000
  0
LINE
  8
39
 10
-10.8500
 20
19.9000
 30
0.0000
 11
10.8500
 21
19.9000
 31
0.0000
  0
LINE
  8
39
 10
-10.8500
 20
20.0000
 30
0.0000
 11
10.8500
 21
20.0000
 31
0.0000
  0
LINE
  8
39
 10
-10.8500
 20
20.1000
 30
0.0000
 11
10.8500
 21
20.1000
 31
0.0000
  0
LINE
  8
39
 10
-10.8500
 20
20.2000
 30
0.0000
 11
10.8500
 21
20.2000
 31
0.0000
  0
LINE
  8
39
 10
-10.8500
 20
20.3000
 30
0.0000
 11
10.8500
 21
20.3000
 31
0.0000
  0
LINE
  8
39
 10
-10.8500
 20
20.4000
 30
0.0000
 11
10.8500
 21
20.4000
 31
0.0000
  0
LINE
  8
39
 10
-10.8500
 20
20.5000
 30
0.0000
 11
10.8500
 21
20.5000
 31
0.0000
  0
LINE
  8
39
 10
-10.8500
 20
20.6000
 30
0.0000
 11
10.8500
 21
20.6000
 31
0.0000
  0
LINE
  8
39
 10
-10.8500
 20
20.7000
 30
0.0000
 11
10.8500
 21
20.7000
 31
0.0000
  0
LINE
  8
39
 10
-10.8500
 20
20.8000
 30
0.0000
 11
10.8500
 21
20.8000
 31
0.0000
  0
LINE
  8
39
 10
-10.8500
 20
20.9000
 30
0.0000
 11
10.8500
 21
20.9000
 31
0.0000
  0
LINE
  8
39
 10
-10.8500
 20
21.0000
 30
0.0000
 11
10.8500
 21
21.0000
 31
0.0000
  0
LINE
  8
39
 10
-10.8500
 20
21.1000
 30
0.0000
 11
10.8500
 21
21.1000
 31
0.0000
  0
LINE
  8
39
 10
-10.8500
 20
21.2000
 30
0.0000
 11
10.8500
 21
21.2000
 31
0.0000
  0
LINE
  8
39
 10
-10.8500
 20
21.3000
 30
0.0000
 11
10.8500
 21
21.3000
 31
0.0000
  0
LINE
  8
39
 10
-10.8500
 20
21.4000
 30
0.0000
 11
10.8500
 21
21.4000
 31
0.0000
  0
LINE
  8
39
 10
-10.8500
 20
21.5000
 30
0.0000
 11
10.8500
 21
21.5000
 31
0.0000
  0
LINE
  8
39
 10
-10.8500
 20
21.6000
 30
0.0000
 11
10.8500
 21
21.6000
 31
0.0000
  0
LINE
  8
39
 10
-10.8500
 20
21.7000
 30
0.0000
 11
10.8500
 21
21.7000
 31
0.0000
  0
LINE
  8
39
 10
-10.8500
 20
21.8000
 30
0.0000
 11
10.8500
 21
21.8000
 31
0.0000
  0
LINE
  8
39
 10
-10.8500
 20
21.9000
 30
0.0000
 11
10.8500
 21
21.9000
 31
0.0000
  0
LINE
  8
39
 10
-10.8500
 20
22.0000
 30
0.0000
 11
10.8500
 21
22.0000
 31
0.0000
  0
LINE
  8
39
 10
-10.8500
 20
22.1000
 30
0.0000
 11
10.8500
 21
22.1000
 31
0.0000
  0
LINE
  8
39
 10
-10.8500
 20
22.2000
 30
0.0000
 11
10.8500
 21
22.2000
 31
0.0000
  0
LINE
  8
39
 10
-10.8500
 20
22.3000
 30
0.0000
 11
10.8500
 21
22.3000
 31
0.0000
  0
LINE
  8
39
 10
-10.8500
 20
22.4000
 30
0.0000
 11
10.8500
 21
22.4000
 31
0.0000
  0
LINE
  8
39
 10
-10.8500
 20
22.5000
 30
0.0000
 11
10.8500
 21
22.5000
 31
0.0000
  0
LINE
  8
39
 10
-10.8500
 20
22.6000
 30
0.0000
 11
10.8500
 21
22.6000
 31
0.0000
  0
LINE
  8
39
 10
-10.8500
 20
22.7000
 30
0.0000
 11
10.8500
 21
22.7000
 31
0.0000
  0
LINE
  8
39
 10
-10.8500
 20
22.8000
 30
0.0000
 11
10.8500
 21
22.8000
 31
0.0000
  0
LINE
  8
39
 10
-10.8500
 20
22.9000
 30
0.0000
 11
10.8500
 21
22.9000
 31
0.0000
  0
LINE
  8
39
 10
-10.8500
 20
23.0000
 30
0.0000
 11
10.8500
 21
23.0000
 31
0.0000
  0
LINE
  8
39
 10
-10.8500
 20
23.1000
 30
0.0000
 11
10.8500
 21
23.1000
 31
0.0000
  0
LINE
  8
39
 10
-10.8500
 20
23.2000
 30
0.0000
 11
10.8500
 21
23.2000
 31
0.0000
  0
LINE
  8
39
 10
-10.8500
 20
23.3000
 30
0.0000
 11
10.8500
 21
23.3000
 31
0.0000
  0
LINE
  8
39
 10
-10.8500
 20
23.4000
 30
0.0000
 11
10.8500
 21
23.4000
 31
0.0000
  0
LINE
  8
39
 10
-10.8500
 20
23.5000
 30
0.0000
 11
10.8500
 21
23.5000
 31
0.0000
  0
LINE
  8
39
 10
-10.8500
 20
23.6000
 30
0.0000
 11
10.8500
 21
23.6000
 31
0.0000
  0
LINE
  8
39
 10
-10.8500
 20
23.7000
 30
0.0000
 11
10.8500
 21
23.7000
 31
0.0000
  0
LINE
  8
39
 10
-10.8500
 20
23.8000
 30
0.0000
 11
10.8500
 21
23.8000
 31
0.0000
  0
LINE
  8
39
 10
-10.8500
 20
23.9000
 30
0.0000
 11
10.8500
 21
23.9000
 31
0.0000
  0
LINE
  8
51
 10
8.7500
 20
23.7000
 30
0.0000
 11
8.7500
 21
16.3000
 31
0.0000
  0
LINE
  8
51
 10
8.7500
 20
16.3000
 30
0.0000
 11
-8.7500
 21
16.3000
 31
0.0000
  0
LINE
  8
51
 10
-8.7500
 20
16.3000
 30
0.0000
 11
-8.7500
 21
23.7000
 31
0.0000
  0
LINE
  8
51
 10
-8.7500
 20
23.7000
 30
0.0000
 11
8.7500
 21
23.7000
 31
0.0000
  0
LINE
  8
21
 10
-8.0500
 20
16.2000
 30
0.0000
 11
-8.8500
 21
16.2000
 31
0.0000
  0
LINE
  8
21
 10
-8.8500
 20
16.2000
 30
0.0000
 11
-8.8500
 21
19.2000
 31
0.0000
  0
LINE
  8
21
 10
-8.8500
 20
20.8000
 30
0.0000
 11
-8.8500
 21
23.8000
 31
0.0000
  0
LINE
  8
21
 10
-8.8500
 20
23.8000
 30
0.0000
 11
8.8500
 21
23.8000
 31
0.0000
  0
LINE
  8
21
 10
8.8500
 20
23.8000
 30
0.0000
 11
8.8500
 21
20.8000
 31
0.0000
  0
LINE
  8
21
 10
8.8500
 20
19.2000
 30
0.0000
 11
8.8500
 21
16.2000
 31
0.0000
  0
LINE
  8
21
 10
8.8500
 20
16.2000
 30
0.0000
 11
8.0500
 21
16.2000
 31
0.0000
  0
LINE
  8
21
 10
6.0000
 20
16.2000
 30
0.0000
 11
4.5000
 21
16.2000
 31
0.0000
  0
LINE
  8
21
 10
2.5000
 20
16.2000
 30
0.0000
 11
1.0000
 21
16.2000
 31
0.0000
  0
LINE
  8
21
 10
-1.0000
 20
16.2000
 30
0.0000
 11
-2.5000
 21
16.2000
 31
0.0000
  0
LINE
  8
21
 10
-4.5000
 20
16.2000
 30
0.0000
 11
-6.0000
 21
16.2000
 31
0.0000
  0
CIRCLE
  8
21
 10
8.3500
 20
12.7000
 30
0.0000
 40
0.1000
  0
CIRCLE
  8
20
 10
9.7500
 20
20.0000
 30
0.0000
 40
0.8500
  0
CIRCLE
  8
20
 10
-9.7500
 20
20.0000
 30
0.0000
 40
0.8500
  0
INSERT
  8
1
  2
RECT
 10
7.0000
 20
15.0500
 30
0.0000
 41
1.4000
 42
5.1000
 43
1.0000
 50
180.0000
  0
INSERT
  8
1
  2
RECT
 10
3.5000
 20
15.0500
 30
0.0000
 41
1.4000
 42
5.1000
 43
1.0000
 50
180.0000
  0
INSERT
  8
1
  2
RECT
 10
0.0000
 20
15.0500
 30
0.0000
 41
1.4000
 42
5.1000
 43
1.0000
 50
180.0000
  0
INSERT
  8
1
  2
RECT
 10
-3.5000
 20
15.0500
 30
0.0000
 41
1.4000
 42
5.1000
 43
1.0000
 50
180.0000
  0
INSERT
  8
1
  2
RECT
 10
-7.0000
 20
15.0500
 30
0.0000
 41
1.4000
 42
5.1000
 43
1.0000
 50
180.0000
  0
LINE
  8
25
 10
-0.3935
 20
11.9492
 30
0.0000
 11
-0.3935
 21
11.0404
 31
0.0000
  0
ARC
  8
25
 10
-0.6531
 20
11.0404
 30
0.0000
 40
0.2596
 50
270.0000
 51
0.0000
  0
LINE
  8
25
 10
-0.6531
 20
10.7808
 30
0.0000
 11
-0.7830
 21
10.7808
 31
0.0000
  0
LINE
  8
25
 10
0.1338
 20
11.6896
 30
0.0000
 11
0.4584
 21
11.9492
 31
0.0000
  0
LINE
  8
25
 10
0.4584
 20
11.9492
 30
0.0000
 11
0.4584
 21
10.7808
 31
0.0000
  0
LINE
  8
25
 10
0.1338
 20
10.7808
 30
0.0000
 11
0.7830
 21
10.7808
 31
0.0000
  0
LINE
  8
19
 10
3.5000
 20
15.0500
 30
0.0000
 11
7.0000
 21
15.0500
 31
0.0000
  0
LINE
  8
19
 10
0.0000
 20
15.0500
 30
0.0000
 11
3.5000
 21
15.0500
 31
0.0000
  0
LINE
  8
19
 10
-3.5000
 20
15.0500
 30
0.0000
 11
0.0000
 21
15.0500
 31
0.0000
  0
LINE
  8
19
 10
-7.0000
 20
15.0500
 30
0.0000
 11
-3.5000
 21
15.0500
 31
0.0000
  0
ENDSEC
  0
EOF
